<svg xmlns="http://www.w3.org/2000/svg" width="110" height="20" viewBox="0 0 110 20">
  <path id="Path_12" data-name="Path 12" d="M355.929,465.828a.428.428,0,0,1-.428.424h-.418V465.4h.418A.429.429,0,0,1,355.929,465.828Zm1.919.408a2.471,2.471,0,1,1-2.47-2.462A2.418,2.418,0,0,1,357.849,466.236Zm-1.24,1.18a.324.324,0,0,0-.12-.255l-.574-.457a.9.9,0,0,0,.677-.875,1.084,1.084,0,0,0-1.081-1.079h-.78a.35.35,0,0,0-.351.349V467.4a.352.352,0,0,0,.7,0v-.511h.041l.913.784a.349.349,0,0,0,.229.079A.341.341,0,0,0,356.608,467.416Zm-70.4-3.476a1.493,1.493,0,0,1,1.492,1.488V476.8a1.506,1.506,0,0,1-1.492,1.516,1.58,1.58,0,0,1-1.428-1.089l-.227-1.05-.961.772a5.869,5.869,0,0,1-3.9,1.367,7.214,7.214,0,0,1,0-14.38,5.87,5.87,0,0,1,3.9,1.368l.93.748.257-1.027A1.581,1.581,0,0,1,286.208,463.94ZM280.4,475.431a4.3,4.3,0,1,0-4.316-4.3A4.3,4.3,0,0,0,280.4,475.431Zm11.018-14.64v3.149h-1.188a1.248,1.248,0,1,0,0,2.5h1.188V476.8a1.505,1.505,0,1,0,3.011,0V466.436h1.723a1.251,1.251,0,0,0,1.236-1.234,1.266,1.266,0,0,0-1.236-1.262h-1.723v-3.149a1.49,1.49,0,0,0-1.492-1.485A1.523,1.523,0,0,0,291.417,460.791Zm13.127,2.981a7.358,7.358,0,1,1-7.384,7.358A7.209,7.209,0,0,1,304.543,463.772Zm0,11.855a4.5,4.5,0,1,0-4.514-4.5A4.51,4.51,0,0,0,304.543,475.627Zm9.006-15.538V476.8a1.5,1.5,0,1,0,3.01,0V460.09a1.505,1.505,0,0,0-3.01,0Zm5.527,0V476.8a1.5,1.5,0,1,0,3.01,0V460.09a1.505,1.505,0,0,0-3.01,0Zm11.858,3.683a7.358,7.358,0,1,1-7.387,7.358A7.208,7.208,0,0,1,330.934,463.772Zm0,11.855a4.5,4.5,0,1,0-4.515-4.5A4.508,4.508,0,0,0,330.934,475.627Zm9.127-5.761V476.8a1.505,1.505,0,0,0,1.49,1.516,1.521,1.521,0,0,0,1.522-1.516v-7.164a3.113,3.113,0,0,1,6.206,0V476.8a1.506,1.506,0,1,0,3.013,0v-6.939a6.115,6.115,0,0,0-12.231,0Zm-72.9-7.329a7.748,7.748,0,0,0-3.132-2.7c-.154-.071-.31-.138-.467-.2a7.51,7.51,0,0,0-6.92.762c-1.271.913-1.813,2.762-3.356,3.313a8.763,8.763,0,0,0-3.385,2.076,7.144,7.144,0,0,0-1.979,6.026,8.047,8.047,0,0,0,2.795,4.991,7.732,7.732,0,0,0,2.135,1.257,8.534,8.534,0,0,0,5.188.264c1.246-.312,2.3-1.062,3.6-1.2a6.488,6.488,0,0,0,4.581-2.6,6.566,6.566,0,0,0,1-2.734,8.224,8.224,0,0,1,.52-1.779,7.533,7.533,0,0,0-.583-7.478Zm-2.716,6.02a3.131,3.131,0,0,0-.647,1.322c-.057.477.1.968.017,1.438a2.609,2.609,0,0,1-1.407,1.93c-.939.5-1.973.133-2.948.495a23.934,23.934,0,0,1-2.456,1.154,4.892,4.892,0,0,1-2.986-.121,4.071,4.071,0,0,1-1.122-.659,4.419,4.419,0,0,1-1.522-2.744,3.437,3.437,0,0,1,.973-2.894,7.2,7.2,0,0,1,3.3-1.6c1.222-.39,1.492-1.137,2.039-2.209a3.589,3.589,0,0,1,2.839-1.981,3.989,3.989,0,0,1,3.921,5.871ZM262.23,470c.109.733.22,1.47-.549,1.88-.8.424-1.63-.395-2.481.059a11.421,11.421,0,0,1-2.568,1.453,3.017,3.017,0,0,1-2.732-.47,2.839,2.839,0,0,1-.98-1.782,1.908,1.908,0,0,1,.548-1.579c1.238-1.268,3.17-.963,4.52-2a3.3,3.3,0,0,0,.91-1.718,2.011,2.011,0,0,1,1.836-1.614,2.438,2.438,0,0,1,2.368,3.551c-.246.421-.708.689-.863,1.162a1.647,1.647,0,0,0-.062.624C262.188,469.708,262.21,469.855,262.23,470Z" transform="translate(-247.849 -458.602)"/>
</svg>
